<svg width="211" height="210" viewBox="0 0 211 210" fill="none" xmlns="http://www.w3.org/2000/svg">
<path d="M163.752 3H47.2C23.8936 3 5 21.804 5 45V161C5 184.196 23.8936 203 47.2 203H163.752C187.059 203 205.952 184.196 205.952 161V45C205.952 21.804 187.059 3 163.752 3Z" fill="#F2F2F2"/>
<path d="M66.2 156L126.486 56L186.771 156H66.2Z" fill="#1A1A1A"/>
<path d="M26.0095 156L71.2238 91L106.39 156H26.0095Z" fill="#2A2A2A"/>
<path d="M66.2 156L126.486 51L186.771 156H66.2Z" fill="#F5A623"/>
<path opacity="0.9" d="M113.424 71L126.486 51L139.548 71L126.486 78L113.424 71Z" fill="white"/>
<path opacity="0.6" d="M126.486 51L186.771 156H154.619L126.486 96V51Z" fill="#D4881E"/>
<path d="M24 156L69.2143 88L106.39 156H24Z" fill="#3A3A3A"/>
<path opacity="0.4" d="M69.2143 88L81.2714 101L106.39 156L69.2143 88Z" fill="#222222"/>
</svg>
