<svg width="452" height="110" viewBox="0 0 452 110" fill="none" xmlns="http://www.w3.org/2000/svg">
<path d="M42 110L102 10L162 110H42Z" fill="#1A1A1A"/>
<path d="M2 110L47 45L82 110H2Z" fill="#2A2A2A"/>
<path d="M42 110L102 5L162 110H42Z" fill="#F5A623"/>
<path opacity="0.9" d="M89 25L102 5L115 25L102 32L89 25Z" fill="white"/>
<path opacity="0.6" d="M102 5L162 110H130L102 50V5Z" fill="#D4881E"/>
<path d="M0 110L45 42L82 110H0Z" fill="#3A3A3A"/>
<path opacity="0.4" d="M45 42L57 55L82 110L45 42Z" fill="#222222"/>
<path d="M187.919 60V14.9091H205.709C209.114 14.9091 212.02 15.5182 214.428 16.7365C216.849 17.9401 218.692 19.6501 219.954 21.8665C221.231 24.0682 221.869 26.6589 221.869 29.6385C221.869 32.6328 221.223 35.2088 219.932 37.3665C218.64 39.5095 216.769 41.1534 214.317 42.2983C211.881 43.4432 208.931 44.0156 205.467 44.0156H193.555V36.3537H203.925C205.746 36.3537 207.257 36.1042 208.461 35.6051C209.665 35.1061 210.56 34.3575 211.147 33.3594C211.749 32.3613 212.05 31.121 212.05 29.6385C212.05 28.1413 211.749 26.879 211.147 25.8516C210.56 24.8241 209.657 24.0462 208.439 23.5178C207.235 22.9747 205.716 22.7031 203.881 22.7031H197.452V60H187.919ZM212.27 39.4801L223.477 60H212.952L201.988 39.4801H212.27ZM270.043 37.4545C270.043 42.3717 269.111 46.5549 267.246 50.0043C265.397 53.4536 262.872 56.0883 259.673 57.9084C256.487 59.7138 252.906 60.6165 248.928 60.6165C244.921 60.6165 241.325 59.7064 238.14 57.8864C234.955 56.0663 232.438 53.4316 230.588 49.9822C228.739 46.5329 227.814 42.357 227.814 37.4545C227.814 32.5374 228.739 28.3542 230.588 24.9048C232.438 21.4555 234.955 18.8281 238.14 17.0227C241.325 15.2027 244.921 14.2926 248.928 14.2926C252.906 14.2926 256.487 15.2027 259.673 17.0227C262.872 18.8281 265.397 21.4555 267.246 24.9048C269.111 28.3542 270.043 32.5374 270.043 37.4545ZM260.377 37.4545C260.377 34.2694 259.9 31.5833 258.946 29.3963C258.007 27.2093 256.678 25.5507 254.961 24.4205C253.244 23.2902 251.233 22.7251 248.928 22.7251C246.624 22.7251 244.613 23.2902 242.896 24.4205C241.178 25.5507 239.843 27.2093 238.888 29.3963C237.949 31.5833 237.479 34.2694 237.479 37.4545C237.479 40.6397 237.949 43.3258 238.888 45.5128C239.843 47.6998 241.178 49.3584 242.896 50.4886C244.613 51.6188 246.624 52.1839 248.928 52.1839C251.233 52.1839 253.244 51.6188 254.961 50.4886C256.678 49.3584 258.007 47.6998 258.946 45.5128C259.9 43.3258 260.377 40.6397 260.377 37.4545ZM282.334 60H272.118L287.684 14.9091H299.969L315.513 60H305.297L294.003 25.2131H293.65L282.334 60ZM281.695 42.2763H305.826V49.718H281.695V42.2763ZM320.941 14.9091H332.698L345.115 45.2045H345.644L358.061 14.9091H369.818V60H360.571V30.6513H360.197L348.528 59.7798H342.231L330.562 30.5412H330.188V60H320.941V14.9091ZM377.673 60V14.9091H387.206V52.1399H406.537V60H377.673ZM404.457 14.9091H415.135L425.417 34.3281H425.857L436.139 14.9091H446.817L430.371 44.0597V60H420.903V44.0597L404.457 14.9091Z" fill="#F5A623"/>
<path d="M186.773 76.6136V75.3636H195.5V76.6136H191.841V87H190.432V76.6136H186.773ZM197.675 87V75.3636H201.607C202.516 75.3636 203.262 75.5189 203.845 75.8295C204.429 76.1364 204.86 76.5587 205.141 77.0966C205.421 77.6345 205.561 78.2462 205.561 78.9318C205.561 79.6174 205.421 80.2254 205.141 80.7557C204.86 81.286 204.43 81.7027 203.851 82.0057C203.271 82.3049 202.531 82.4545 201.629 82.4545H198.447V81.1818H201.584C202.205 81.1818 202.705 81.0909 203.084 80.9091C203.466 80.7273 203.743 80.4697 203.913 80.1364C204.088 79.7992 204.175 79.3977 204.175 78.9318C204.175 78.4659 204.088 78.0587 203.913 77.7102C203.739 77.3617 203.461 77.0928 203.078 76.9034C202.696 76.7102 202.19 76.6136 201.561 76.6136H199.084V87H197.675ZM203.152 81.7727L206.016 87H204.379L201.561 81.7727H203.152ZM208.386 87H206.909L211.182 75.3636H212.636L216.909 87H215.432L211.955 77.2045H211.864L208.386 87ZM208.932 82.4545H214.886V83.7045H208.932V82.4545ZM218.105 75.3636L221.56 85.1591H221.696L225.151 75.3636H226.628L222.355 87H220.901L216.628 75.3636H218.105ZM228.44 87V75.3636H235.463V76.6136H229.849V80.5455H235.099V81.7955H229.849V85.75H235.554V87H228.44ZM238.003 87V75.3636H239.412V85.75H244.821V87H238.003ZM254.616 87.1591C253.851 87.1591 253.192 87.0189 252.639 86.7386C252.086 86.4583 251.66 86.0739 251.361 85.5852C251.062 85.0966 250.912 84.5379 250.912 83.9091C250.912 83.4242 251.014 82.9943 251.219 82.6193C251.427 82.2405 251.713 81.8902 252.077 81.5682C252.444 81.2424 252.866 80.9167 253.344 80.5909L255.026 79.3409C255.355 79.125 255.618 78.8939 255.815 78.6477C256.016 78.4015 256.116 78.0795 256.116 77.6818C256.116 77.3864 255.986 77.1004 255.724 76.8239C255.467 76.5473 255.128 76.4091 254.707 76.4091C254.412 76.4091 254.151 76.4848 253.923 76.6364C253.7 76.7841 253.524 76.9735 253.395 77.2045C253.27 77.4318 253.207 77.6667 253.207 77.9091C253.207 78.1818 253.281 78.4583 253.429 78.7386C253.58 79.0152 253.772 79.2992 254.003 79.5909C254.238 79.8788 254.48 80.1742 254.73 80.4773L260.071 87H258.457L254.048 81.6818C253.639 81.1894 253.268 80.7424 252.935 80.3409C252.601 79.9394 252.336 79.5436 252.139 79.1534C251.942 78.7633 251.844 78.3409 251.844 77.8864C251.844 77.3636 251.959 76.9053 252.19 76.5114C252.425 76.1136 252.753 75.8049 253.173 75.5852C253.598 75.3617 254.094 75.25 254.662 75.25C255.245 75.25 255.747 75.3636 256.168 75.5909C256.588 75.8144 256.912 76.1117 257.139 76.483C257.366 76.8504 257.48 77.25 257.48 77.6818C257.48 78.2386 257.342 78.7216 257.065 79.1307C256.789 79.5398 256.412 79.9205 255.935 80.2727L253.616 82C253.094 82.3864 252.74 82.7614 252.554 83.125C252.368 83.4886 252.276 83.75 252.276 83.9091C252.276 84.2727 252.37 84.6117 252.56 84.9261C252.749 85.2405 253.016 85.4943 253.361 85.6875C253.705 85.8807 254.109 85.9773 254.571 85.9773C255.01 85.9773 255.438 85.8845 255.855 85.6989C256.272 85.5095 256.649 85.2367 256.986 84.8807C257.327 84.5246 257.596 84.0966 257.793 83.5966C257.993 83.0966 258.094 82.5341 258.094 81.9091H259.389C259.389 82.6818 259.3 83.3125 259.122 83.8011C258.944 84.2898 258.743 84.6723 258.52 84.9489C258.296 85.2254 258.116 85.4318 257.98 85.5682C257.935 85.625 257.893 85.6818 257.855 85.7386C257.817 85.7955 257.776 85.8523 257.73 85.9091C257.355 86.3295 256.882 86.6439 256.31 86.8523C255.738 87.0568 255.173 87.1591 254.616 87.1591ZM266.714 87H265.237L269.51 75.3636H270.964L275.237 87H273.76L270.283 77.2045H270.192L266.714 87ZM267.26 82.4545H273.214V83.7045H267.26V82.4545ZM280.641 87H277.05V75.3636H280.8C281.929 75.3636 282.894 75.5966 283.697 76.0625C284.5 76.5246 285.116 77.1894 285.544 78.0568C285.972 78.9205 286.186 79.9545 286.186 81.1591C286.186 82.3712 285.97 83.4148 285.538 84.2898C285.107 85.161 284.478 85.8314 283.652 86.3011C282.826 86.767 281.822 87 280.641 87ZM278.459 85.75H280.55C281.512 85.75 282.309 85.5644 282.942 85.1932C283.574 84.822 284.046 84.2936 284.357 83.608C284.667 82.9223 284.822 82.1061 284.822 81.1591C284.822 80.2197 284.669 79.411 284.362 78.733C284.055 78.0511 283.597 77.5284 282.987 77.1648C282.377 76.7973 281.618 76.6136 280.709 76.6136H278.459V85.75ZM288.48 75.3636L291.935 85.1591H292.071L295.526 75.3636H297.003L292.73 87H291.276L287.003 75.3636H288.48ZM298.815 87V75.3636H305.838V76.6136H300.224V80.5455H305.474V81.7955H300.224V85.75H305.929V87H298.815ZM317.605 75.3636V87H316.241L309.901 77.8636H309.787V87H308.378V75.3636H309.741L316.105 84.5227H316.219V75.3636H317.605ZM319.788 76.6136V75.3636H328.516V76.6136H324.857V87H323.447V76.6136H319.788ZM338.327 75.3636H339.736V83.0682C339.736 83.8636 339.548 84.5739 339.173 85.1989C338.802 85.8201 338.277 86.3106 337.599 86.6705C336.921 87.0265 336.126 87.2045 335.213 87.2045C334.3 87.2045 333.505 87.0265 332.827 86.6705C332.149 86.3106 331.622 85.8201 331.247 85.1989C330.876 84.5739 330.69 83.8636 330.69 83.0682V75.3636H332.099V82.9545C332.099 83.5227 332.224 84.0284 332.474 84.4716C332.724 84.911 333.08 85.2576 333.543 85.5114C334.009 85.7614 334.565 85.8864 335.213 85.8864C335.861 85.8864 336.418 85.7614 336.884 85.5114C337.349 85.2576 337.705 84.911 337.952 84.4716C338.202 84.0284 338.327 83.5227 338.327 82.9545V75.3636ZM342.55 87V75.3636H346.482C347.391 75.3636 348.137 75.5189 348.72 75.8295C349.304 76.1364 349.735 76.5587 350.016 77.0966C350.296 77.6345 350.436 78.2462 350.436 78.9318C350.436 79.6174 350.296 80.2254 350.016 80.7557C349.735 81.286 349.305 81.7027 348.726 82.0057C348.146 82.3049 347.406 82.4545 346.504 82.4545H343.322V81.1818H346.459C347.08 81.1818 347.58 81.0909 347.959 80.9091C348.341 80.7273 348.618 80.4697 348.788 80.1364C348.963 79.7992 349.05 79.3977 349.05 78.9318C349.05 78.4659 348.963 78.0587 348.788 77.7102C348.614 77.3617 348.336 77.0928 347.953 76.9034C347.571 76.7102 347.065 76.6136 346.436 76.6136H343.959V87H342.55ZM348.027 81.7727L350.891 87H349.254L346.436 81.7727H348.027ZM352.784 87V75.3636H359.807V76.6136H354.193V80.5455H359.443V81.7955H354.193V85.75H359.898V87H352.784Z" fill="#888888"/>
<path opacity="0.5" d="M186 98H452" stroke="#F5A623" stroke-width="2"/>
</svg>
